<svg width="800" height="520" viewBox="0 0 800 520" fill="none" xmlns="http://www.w3.org/2000/svg">
  <defs>
    <linearGradient id="bg" x1="0" y1="0" x2="1" y2="1">
      <stop offset="0%" stop-color="#0F172A"/>
      <stop offset="100%" stop-color="#1E293B"/>
    </linearGradient>
    <linearGradient id="card" x1="0" y1="0" x2="1" y2="1">
      <stop offset="0%" stop-color="#22D3EE" stop-opacity="0.35"/>
      <stop offset="100%" stop-color="#38BDF8" stop-opacity="0.1"/>
    </linearGradient>
  </defs>
  <rect width="800" height="520" rx="24" fill="url(#bg)"/>
  <rect x="54" y="54" width="692" height="412" rx="20" fill="#0B1220" stroke="#334155"/>
  <rect x="86" y="94" width="628" height="54" rx="12" fill="#111827"/>
  <circle cx="110" cy="121" r="8" fill="#FB7185"/>
  <circle cx="136" cy="121" r="8" fill="#FACC15"/>
  <circle cx="162" cy="121" r="8" fill="#22C55E"/>
  <rect x="86" y="170" width="304" height="230" rx="14" fill="url(#card)" stroke="#22D3EE"/>
  <rect x="412" y="170" width="302" height="104" rx="14" fill="#0F172A" stroke="#334155"/>
  <rect x="412" y="296" width="302" height="104" rx="14" fill="#0F172A" stroke="#334155"/>
  <rect x="106" y="194" width="210" height="16" rx="8" fill="#E2E8F0"/>
  <rect x="106" y="222" width="252" height="10" rx="5" fill="#94A3B8"/>
  <rect x="106" y="242" width="236" height="10" rx="5" fill="#94A3B8"/>
  <rect x="106" y="262" width="180" height="10" rx="5" fill="#94A3B8"/>
  <rect x="106" y="306" width="132" height="36" rx="18" fill="#22D3EE"/>
  <text x="172" y="330" text-anchor="middle" font-family="Arial, sans-serif" font-size="14" fill="#082F49">Contact Us</text>
  <rect x="434" y="194" width="156" height="12" rx="6" fill="#E2E8F0"/>
  <rect x="434" y="216" width="240" height="9" rx="4.5" fill="#94A3B8"/>
  <rect x="434" y="320" width="120" height="12" rx="6" fill="#E2E8F0"/>
  <rect x="434" y="342" width="240" height="9" rx="4.5" fill="#94A3B8"/>
</svg>
